<?xml version="1.0"?>
<svg xmlns="http://www.w3.org/2000/svg" xmlns:xlink="http://www.w3.org/1999/xlink" xmlns:svgjs="http://svgjs.com/svgjs" version="1.1" width="512" height="512" x="0" y="0" viewBox="0 0 512 512" style="enable-background:new 0 0 512 512" xml:space="preserve" class=""><g transform="matrix(1,0,0,1,0,0)"><g xmlns="http://www.w3.org/2000/svg"><path d="m350.676 177.538v223.963c-1.807 1.631-5.992 2.12-8.265 2.741l-10.165 2.367s-233.263 54.281-233.287 54.296c-.8.176-1.609.208-2.399.083l4.351-4.932 47.432-53.735 97.564-110.544 86.339-97.823 9.646-10.944h.01l8.068-9.148c.467 1.152.706 2.409.706 3.676z" fill="#9dc6fb" data-original="#9dc6fb" style="" class=""/><path d="m350.676 177.538v223.963c-1.807 1.631-5.992 2.12-8.265 2.741l-10.165 2.367v-212.655l9.646-10.944h.01l8.068-9.148c.467 1.152.706 2.409.706 3.676z" fill="#80b4fb" data-original="#80b4fb" style="" class=""/><path d="m474.697 219.82-3.032 4.465-4.86 7.154-24.765 36.436-87.481 128.735c-1.018 1.417-2.425 3.916-3.883 4.891v-108.851l93.307-55.375 28.316-16.811c.021-.01.031-.021.052-.031.726-.416 1.536-.624 2.346-.613z" fill="#ecf4ff" data-original="#ecf4ff" style="" class=""/><path d="m474.697 219.82-3.032 4.465-4.86 7.154-24.765 36.436-87.481 128.735c-1.018 1.417-2.425 3.916-3.883 4.891v-26.935l93.307-137.291 28.316-16.811c.021-.01.031-.021.052-.031.726-.416 1.536-.624 2.346-.613z" fill="#ddeafb" data-original="#ddeafb" style=""/><path d="m349.97 173.862-8.068 9.148h-.01l-9.646 10.944-86.339 97.823-3.821-23.166-36.27-219.789c-.301-1.796 1.838-2.98 3.198-1.765l128.081 113.918 4.361 3.883 5.887 5.233c.031.031.062.062.094.083 1.131 1.04 1.993 2.296 2.533 3.688z" fill="#ecf4ff" data-original="#ecf4ff" style="" class=""/><path d="m349.97 173.862-8.068 9.148h-.01l-9.646 10.944-86.339 97.823-3.821-23.166 95.01-107.636 4.361 3.883 5.887 5.233c.031.031.062.062.094.083 1.13 1.04 1.992 2.296 2.532 3.688z" fill="#ddeafb" data-original="#ddeafb" style=""/><path d="m148.342 402.321-47.432 53.735-4.351 4.932c-.987-.146-1.942-.519-2.783-1.09 0 0-.01 0-.01-.01.017.031-2.162-1.606-2.212-1.641l-9.999-7.445-25.782-19.189-37.89-28.212c1.059-.685 2.316-1.08 3.645-1.08z" fill="#ecf4ff" data-original="#ecf4ff" style="" class=""/><path d="m148.342 402.321-47.432 53.735-4.351 4.932c-.987-.146-1.942-.519-2.783-1.09 0 0-.01 0-.01-.01.017.031-2.162-1.606-2.212-1.641l-9.999-7.445 42.78-48.481z" fill="#ddeafb" data-original="#ddeafb" style=""/><path d="m511.368 259.306c1.385 1.58.356 4.062-1.74 4.198l-13.914.903-53.673 3.468 24.765-36.436 4.86-7.154 3.032-4.465c1.267.01 2.513.54 3.406 1.558l.021.021 3.551 4.05z" fill="#9dc6fb" data-original="#9dc6fb" style="" class=""/><path d="m509.627 263.504-13.914.903-28.908-32.968 7.892-11.619c1.267.01 2.513.54 3.406 1.558.01.01 33.265 37.929 33.265 37.929 1.385 1.579.356 4.061-1.741 4.197z" fill="#80b4fb" data-original="#80b4fb" style="" class=""/><path d="m55.772 431.613-52.603 33.497c-1.589 1.007-3.582-.467-3.094-2.274l11.526-42.666 3.499-12.927c.436-1.62 1.443-2.97 2.783-3.842z" fill="#9dc6fb" data-original="#9dc6fb" style="" class=""/><path d="m55.772 431.613-15.523 9.875-28.648-21.318 3.499-12.927c.436-1.62 1.443-2.97 2.783-3.842z" fill="#80b4fb" data-original="#80b4fb" style="" class=""/></g></g></svg>
